<svg xmlns="http://www.w3.org/2000/svg" xml:space="preserve" style="fill-rule:evenodd;clip-rule:evenodd;stroke-linejoin:round;stroke-miterlimit:2" viewBox="0 0 32 32"><path d="M27 6a5.004 5.004 0 0 0-1.464-3.536A5.004 5.004 0 0 0 22 1H10a5.004 5.004 0 0 0-3.536 1.464A5.004 5.004 0 0 0 5 6v24a1.002 1.002 0 0 0 1.707.707L16 21.414l9.293 9.293A1 1 0 0 0 27 30V6Zm-2 0v21.586l-8.293-8.293a.999.999 0 0 0-1.414 0L7 27.586V6c0-.796.316-1.559.879-2.121A2.996 2.996 0 0 1 10 3h12c.796 0 1.559.316 2.121.879C24.684 4.441 25 5.204 25 6Z"/></svg>