<svg xmlns="http://www.w3.org/2000/svg" xml:space="preserve" style="fill-rule:evenodd;clip-rule:evenodd;stroke-linejoin:round;stroke-miterlimit:2" viewBox="0 0 32 32"><path d="M15 10.034c-2.681.188-5.169 1.133-7.271 2.283L4.707 9.293a1 1 0 1 0-1.414 1.414l2.671 2.674c-2.713 1.788-4.484 3.666-4.714 3.916a1.018 1.018 0 0 0-.178 1.103C1.134 18.536 8.375 26 16 26c8.121 0 14.732-7.318 14.74-7.327a.998.998 0 0 0 .252-.799c-.036-.288-2.995-3.286-5.883-5.032l3.132-3.135a1 1 0 0 0-1.415-1.414l-3.533 3.538-.012.011c-1.875-.918-4.008-1.632-6.281-1.803V6a1 1 0 0 0-2 0v4.034ZM15.983 12l.108.001A6.003 6.003 0 0 1 22 18c0 3.311-2.689 6-6 6s-6-2.689-6-6a6.003 6.003 0 0 1 5.983-6Zm-6.764 1.756c-2.726 1.382-4.823 3.234-5.843 4.227.992.972 3.089 2.837 5.826 4.235A7.959 7.959 0 0 1 8 18c0-1.559.447-3.014 1.219-4.244Zm13.596.055A7.956 7.956 0 0 1 24 18c0 1.548-.44 2.993-1.202 4.218 2.702-1.38 4.78-3.216 5.789-4.199-.989-.968-3.063-2.814-5.772-4.208Z"/></svg>